<?xml version="1.0" standalone="no"?>
<!DOCTYPE svg PUBLIC "-//W3C//DTD SVG 20010904//EN"
 "http://www.w3.org/TR/2001/REC-SVG-20010904/DTD/svg10.dtd">
<svg version="1.0" xmlns="http://www.w3.org/2000/svg"
 width="64.000000pt" height="64.000000pt" viewBox="0 0 64.000000 64.000000"
 preserveAspectRatio="xMidYMid meet">

<g transform="translate(0.000000,64.000000) scale(0.100000,-0.100000)"
fill="#000000" stroke="none">
<path d="M271 504 c-27 -34 -26 -50 4 -79 32 -33 68 -32 94 1 26 33 26 45 0
78 -13 17 -30 26 -49 26 -19 0 -36 -9 -49 -26z m77 -6 c34 -34 -6 -90 -48 -68
-35 19 -20 80 20 80 9 0 21 -5 28 -12z"/>
<path d="M272 328 c-6 -6 -12 -29 -12 -50 0 -72 86 -91 118 -25 11 22 11 32 0
55 -11 22 -21 28 -53 30 -23 2 -46 -3 -53 -10z"/>
<path d="M100 218 c-40 -43 -14 -108 44 -108 41 0 66 26 66 68 0 57 -70 82
-110 40z m74 -14 c29 -29 13 -74 -25 -74 -19 0 -49 25 -49 41 0 12 37 49 49
49 5 0 17 -7 25 -16z"/>
<path d="M452 224 c-28 -19 -30 -74 -4 -97 63 -57 152 33 92 93 -24 24 -57 26
-88 4z m68 -24 c11 -11 20 -24 20 -29 0 -16 -30 -41 -49 -41 -38 0 -54 45 -25
74 20 21 30 20 54 -4z"/>
</g>
</svg>
